<svg xmlns="http://www.w3.org/2000/svg" width="337" height="100" viewBox="0 0 337 100">
  <defs>
    <style>
      .cls-1 {
        stroke: #000;
        stroke-width: 1px;
        fill-rule: evenodd;
      }
    </style>
  </defs>
  <path id="ABOUT" class="cls-1" d="M26.165,57.977H50.356v23H65.583V30.631C61.337,26.384,58.956,24,54.707,19.755H21.814L10.938,30.631v50.34H26.165V57.977ZM50.357,34.982v7.767H26.165V34.982H50.357ZM131.168,70.1V53.626L127.9,50.363l3.264-3.263V30.631L120.29,19.755H76.521V80.972H120.29ZM91.748,34.982h24.191V42.75H91.748V34.982Zm24.191,30.763H91.748V57.979h24.191v7.767Zm35.467,15.227H184.3c4.247-4.247,6.628-6.629,10.877-10.876V30.631L184.3,19.755H151.406L140.53,30.631V70.1Zm4.35-45.99h24.191V65.744H155.756V34.982Zm88.726,30.762H220.29V19.755H205.063V70.1l10.876,10.876h32.894L259.709,70.1V19.755H244.482V65.744Zm25.356-30.762h18.621v45.99h15.227V34.982h18.623l4.351-15.227H265.487Z"/>
</svg>
