<?xml version="1.0" encoding="UTF-8" ?>
<!DOCTYPE svg PUBLIC "-//W3C//DTD SVG 1.1//EN" "http://www.w3.org/Graphics/SVG/1.1/DTD/svg11.dtd">
<svg width="419pt" height="419pt" viewBox="0 0 419 419" version="1.1" xmlns="http://www.w3.org/2000/svg">
<g id="#f4f4f6ff">
</g>
<g id="#000000ff">
<path fill="#000000" opacity="1.00" d=" M 153.80 33.76 C 161.51 27.80 171.29 24.72 181.01 24.82 C 234.00 24.84 286.99 24.83 339.99 24.83 C 351.38 24.67 362.79 29.09 370.97 37.05 C 379.35 45.00 384.53 56.42 384.35 68.03 C 384.38 122.01 384.39 175.99 384.34 229.97 C 384.60 247.28 372.85 263.78 356.76 269.88 C 347.71 273.89 337.62 272.85 328.00 272.98 C 318.35 272.88 308.69 273.18 299.05 272.86 C 298.62 246.56 299.05 220.24 298.85 193.94 C 298.38 181.25 294.13 168.71 286.35 158.64 C 276.51 145.46 261.26 136.52 244.96 134.42 C 239.32 133.94 233.65 134.06 228.00 134.03 C 201.00 134.05 174.00 134.02 147.00 134.04 C 143.46 134.02 139.89 134.23 136.37 133.72 C 136.44 112.48 136.43 91.23 136.39 69.98 C 135.78 56.04 142.59 42.05 153.80 33.76 Z" />
<path fill="#000000" opacity="1.00" d=" M 72.35 152.39 C 76.55 151.91 80.78 152.10 85.00 152.08 C 130.67 152.09 176.33 152.08 222.00 152.08 C 230.71 152.20 239.58 151.42 248.10 153.72 C 266.23 158.06 279.90 175.43 280.59 193.94 C 280.60 248.64 280.58 303.35 280.60 358.06 C 280.12 372.66 271.77 386.82 259.10 394.16 C 252.48 398.21 244.70 400.16 236.99 400.34 C 183.33 400.32 129.67 400.32 76.01 400.33 C 63.98 400.20 52.04 395.00 43.97 386.02 C 38.92 380.56 35.44 373.77 33.63 366.58 C 32.30 360.48 32.67 354.20 32.63 348.00 C 32.62 299.00 32.65 250.00 32.62 201.00 C 32.53 193.29 32.64 185.23 36.23 178.20 C 42.47 163.90 56.77 153.62 72.35 152.39 Z" />
</g>
</svg>
