<?xml version="1.0" encoding="UTF-8" ?>
<!DOCTYPE svg PUBLIC "-//W3C//DTD SVG 1.1//EN" "http://www.w3.org/Graphics/SVG/1.1/DTD/svg11.dtd">
<svg width="460pt" height="460pt" viewBox="0 0 460 460" version="1.1" xmlns="http://www.w3.org/2000/svg">
<g id="#8c9effff">
</g>
<g id="#ffffffff">
<path fill="#ffffff" opacity="1.00" d=" M 137.58 78.53 C 148.42 75.87 159.17 72.56 170.31 71.44 C 172.04 74.76 173.73 78.10 174.90 81.67 C 169.56 83.35 164.07 84.46 158.70 86.02 C 136.63 93.20 115.68 104.02 97.57 118.59 C 92.52 122.82 86.89 126.46 82.77 131.67 C 89.26 129.19 94.87 124.94 101.28 122.28 C 111.23 117.37 121.40 112.92 131.74 108.89 C 141.86 105.56 151.79 101.51 162.29 99.48 C 172.67 97.08 183.24 95.65 193.73 93.86 C 220.27 91.37 247.07 91.74 273.55 94.73 C 280.98 95.68 288.27 97.40 295.49 99.36 C 301.68 101.07 308.05 102.09 314.18 104.02 C 331.51 109.77 348.25 117.15 364.54 125.38 C 368.26 127.40 371.86 129.68 375.88 131.07 C 372.04 126.24 366.89 122.75 362.28 118.73 C 344.00 103.42 322.16 92.95 299.54 85.80 C 294.50 84.31 289.22 83.56 284.47 81.21 C 285.85 78.10 287.40 75.07 289.40 72.30 C 301.87 71.97 313.67 76.51 325.61 79.40 C 347.03 86.61 367.27 97.19 385.59 110.40 C 388.69 112.76 390.57 116.26 392.40 119.62 C 406.48 144.83 416.65 172.04 424.55 199.75 C 430.26 216.88 433.81 234.63 437.44 252.28 C 442.37 278.31 445.31 304.65 447.20 331.06 C 447.76 334.68 444.45 336.96 442.38 339.39 C 423.17 359.87 398.63 375.22 372.01 384.05 C 355.87 389.64 339.01 393.21 321.96 394.39 C 318.82 394.84 316.91 391.94 315.23 389.80 C 311.21 384.09 306.92 378.59 302.96 372.85 C 311.00 368.72 319.69 365.98 327.61 361.60 C 350.08 350.05 370.49 334.24 386.77 314.88 C 382.46 317.45 378.61 320.68 374.44 323.46 C 357.09 335.14 338.12 344.37 318.30 351.05 C 309.87 353.28 301.70 356.62 293.01 357.81 C 287.10 358.76 281.33 360.46 275.37 361.14 C 255.67 363.41 235.81 365.21 215.96 364.02 C 201.56 362.95 187.03 362.29 172.92 359.02 C 144.94 353.54 117.57 343.83 93.31 328.69 C 86.24 324.63 79.81 319.59 73.10 314.98 C 75.17 318.14 77.78 320.88 80.49 323.50 C 95.18 338.56 112.17 351.43 130.89 361.06 C 139.01 365.43 147.68 368.58 156.08 372.35 C 154.99 376.36 151.89 379.30 149.57 382.61 C 146.76 386.14 144.53 390.16 141.32 393.37 C 139.94 394.83 137.78 394.32 136.00 394.31 C 127.86 393.43 119.66 392.70 111.73 390.54 C 102.53 388.00 92.89 386.88 84.15 382.87 C 78.36 380.20 72.19 378.40 66.53 375.43 C 47.98 366.45 30.94 354.22 16.89 339.10 C 15.40 337.45 13.85 335.82 12.77 333.86 C 12.12 331.28 12.61 328.59 12.78 325.98 C 14.41 310.78 15.70 295.54 17.58 280.37 C 20.18 267.30 21.37 253.96 24.75 241.04 C 26.89 228.85 30.33 216.96 33.10 204.91 C 35.56 197.14 37.78 189.29 40.53 181.62 C 44.83 167.22 51.00 153.48 56.84 139.67 C 59.92 132.68 63.79 126.08 67.31 119.31 C 69.17 115.99 71.06 112.52 74.17 110.19 C 93.38 96.26 114.85 85.40 137.58 78.53 M 160.36 213.41 C 153.09 214.89 146.20 218.71 141.43 224.45 C 134.40 232.56 130.77 243.34 130.71 254.02 C 131.22 266.13 136.14 278.51 145.72 286.27 C 153.27 293.02 164.42 294.93 174.04 292.24 C 180.13 290.91 185.18 286.86 189.40 282.46 C 204.98 265.31 203.24 235.49 185.58 220.44 C 178.66 214.79 169.27 211.60 160.36 213.41 M 289.35 213.32 C 276.48 215.50 266.03 225.88 262.05 238.08 C 256.25 254.46 260.35 274.72 273.96 286.06 C 282.91 294.17 296.73 295.36 307.53 290.48 C 313.21 287.45 318.53 283.31 321.61 277.54 C 332.52 260.69 330.52 236.16 315.89 222.11 C 308.90 215.55 298.98 211.54 289.35 213.32 Z" />
</g>
</svg>
