<svg id="Layer_1" data-name="Layer 1" xmlns="http://www.w3.org/2000/svg" viewBox="0 0 271.24 236.04"><g id="_000000ff" data-name="#000000ff"><path d="M46.57,61.51a71.24,71.24,0,0,1,93.19-10.17c8.93,6.3,15.87,14.88,24,22.13,6.48-6.43,12.67-13.19,19.66-19.09A71,71,0,0,1,278,160Q221,217.36,163.69,274.5c-38.59-38.14-76.76-76.7-115.19-115a71,71,0,0,1-1.93-98M66.86,83.9a40.56,40.56,0,0,0-8.61,31.15c1.18,9.51,6.17,18.14,12.83,24.89q46,46.16,92.15,92.23c8.7-7.92,16.7-16.6,25.14-24.81q34.24-34.25,68.49-68.5c8-8.13,12.82-19.42,12.25-30.9-.43-11-5.38-22-13.9-29.21a40.3,40.3,0,0,0-31.17-10c-9.81.69-18.92,5.63-25.83,12.49-11.55,11.56-23.15,23.06-34.62,34.69-9.15-8.67-17.86-17.8-26.84-26.64-4.53-4.46-8.83-9.2-13.87-13.1a41,41,0,0,0-56,7.75Z" transform="translate(-27.89 -38.46)"/></g></svg>