<svg xmlns="http://www.w3.org/2000/svg" width="329" height="39" viewBox="0 0 329 39">
  <defs>
    <style>
      .cls-1 {
        stroke: #000;
        stroke-width: 1px;
        fill-rule: evenodd;
      }
    </style>
  </defs>
  <path id="favorites" class="cls-1" d="M9.945,23.852H25.7v-9.5H9.945V9.5H29.8l2.716-9.5H0.441V38.2h9.5V23.852Zm35.314,0h15.1V38.2h9.5V6.783L63.075-.005H42.544L35.755,6.783V38.2h9.5V23.852ZM60.36,9.5v4.848H45.26V9.5h15.1Zm50,21.239V-0.005h-9.5v24.69l-7.55,3.523-7.549-3.523V-0.005H76.254V30.738L93.309,38.7ZM123.214,38.2h20.531l6.79-6.789V6.783l-6.79-6.789H123.214l-6.788,6.789V31.415ZM125.929,9.5h15.1V28.7h-15.1V9.5Zm40.608,17.224h15.1V38.2h9.5v-14.2l-2.037-2.037,2.037-2.037V6.783L184.353-.005h-27.32V38.2h9.5V26.722Zm0-17.224h15.1v7.718h-15.1V9.5ZM207.363,38.2V-0.005h-9.5V38.2h9.5ZM214.056,9.5h11.623V38.2h9.5V9.5h11.624l2.716-9.5H211.34Zm71.492,19.2H262.98V23.852h15.752v-9.5H262.98V9.5h19.853l2.715-9.5H253.476V38.2h29.357Zm6.012-4.849h24.605V28.7H291.56L288.844,38.2h36.825V14.348h-24.6V9.5h24.6l2.716-9.5H291.56V23.852Z"/>
</svg>
