<svg xmlns="http://www.w3.org/2000/svg" width="301" height="38">
  <path fill-rule="evenodd" stroke="#000" d="M.7 7.3v24.4l6.6 6.7h20l6.5-6.7V14.8H17.3v9.4h7.3V29H10V10h23.8L36.5.6H7.3L.7 7.3ZM72.6 29h-22v-4.8H66v-9.4H50.7V10h19.2L72.6.6H41.5v37.8h28.4Zm28.8-15.7L83.6.6h-6v37.8h9.1v-24l14.7 10.4v13.6h9.2V.6h-9.2v12.7ZM148.6 29h-21.9v-4.8H142v-9.4h-15.3V10H146l2.6-9.4h-31.1v37.8H146Zm14.2-2h14.6v11.4h9.2v-14l-2-2 2-2v-13L180.1.5h-26.5v37.8h9.2V27Zm0-17h14.6v7.6h-14.6V10ZM202 24.2h14.7v14.2h9.2v-31L219.4.5h-20L193 7.3v31h9.2v-14ZM216.8 10v4.8H202V10h14.7Zm14.6 0h11.3v28.4h9.2V10H263l2.7-9.4h-37Zm69.3 19h-21.9v-4.8h15.3v-9.4h-15.3V10h19.3l2.6-9.4h-31v37.8H298Z"/>
</svg>
