<?xml version="1.0" encoding="utf-8"?>
<!-- Generator: Adobe Illustrator 24.3.0, SVG Export Plug-In . SVG Version: 6.00 Build 0)  -->
<svg version="1.1" id="Layer_1" xmlns="http://www.w3.org/2000/svg" xmlns:xlink="http://www.w3.org/1999/xlink" x="0px" y="0px"
	 viewBox="0 0 213.6 203.4" style="enable-background:new 0 0 213.6 203.4;" xml:space="preserve">
<g id="_000000ff">
	<path d="M103.5,6.3c1-2.2,2.2-4.3,3.5-6.3c10.9,22.3,21.7,44.6,32.9,66.8c1.4,0.4,2.8,0.8,4.2,0.9c23.2,3.3,46.4,6.8,69.6,10.1
		c-2.7,3.6-6.2,6.3-9.4,9.4c-13.9,13.5-27.6,27.1-41.6,40.4c-1.1,1.1-2.7,2.3-2,4c4.1,23.9,8.1,47.8,12.4,71.7
		c-4.4-1.6-8.4-4.2-12.6-6.3c-16.8-8.8-33.6-17.6-50.4-26.5c-1.1-0.7-2.3-1.2-3.6-1.4c-22,11.2-43.7,23.3-65.8,34.3
		c4.1-24.4,8.5-48.7,12.5-73.1C35.9,112.3,17.2,95.8,0,77.7c22.3-3.3,44.5-6.5,66.8-9.8c2.3-0.4,4.7-0.5,7-1.3
		C84,46.7,93.6,26.4,103.5,6.3"/>
</g>
</svg>
