<svg xmlns="http://www.w3.org/2000/svg" width="348" height="117">
  <path fill-rule="evenodd" stroke="#000" d="M19.8 71h40l4.9-16.8h-40v-34h35.1l4.9-17H19.8l-12 12.1V59Zm64.8 0H121l12-12V15.3l-12-12H84.6l-12 12V59Zm4.8-50.9h26.8v34H89.4v-34Zm112 34h-40V3.4h-16.8V71h52Zm18.3 17h36.5l12-12.1V15.3l-12-12h-36.5l-12 12V59Zm4.9-51h26.7v34h-26.7v-34Zm72 30.6h26.8V71h16.8V46l-3.6-3.7 3.6-3.6V15.3l-12-12h-48.5V71h16.9V50.7Zm0-30.6h26.8v13.7h-26.8V20.1Zm-286 65.1v23.4l6.2 6.4H36l6.3-6.4V92.4H26.4v9h7v4.6h-14V87.8h22.9l2.5-9h-28l-6.3 6.4ZM79.4 106h-21v-4.6H73v-9H58.5v-4.6H77l2.5-9H49.6V115H77Zm27.7-15L90 78.8h-5.9V115H93V92l14 10v13h9V78.8h-9V91Zm45.3 15h-21v-4.6H146v-9h-14.6v-4.6H150l2.5-9h-29.9V115H150Zm13.6-1.8h14V115h9v-13.4l-2-2 2-1.9V85.2l-6.4-6.4h-25.5V115h8.9v-10.8Zm0-16.4h14v7.3h-14v-7.3Zm37.8 13.6h14V115h8.9V85.2l-6.3-6.4h-19.2l-6.3 6.4V115h8.9v-13.6Zm14-13.6v4.6h-14v-4.6h14Zm14 0h10.9V115h8.9V87.8h10.8l2.5-9h-35.6Zm42 27.2H293l6.3-6.4V85.2l-6.3-6.4h-19l-6.3 6.4v23.4Zm2.6-27.2h14V106h-14V87.8Zm37.8 16.4h14.1V115h8.9v-13.4l-2-2 2-1.9V85.2l-6.4-6.4h-25.4V115h8.9v-10.8Zm0-16.4h14.1v7.3h-14v-7.3Z"/>
</svg>
